<?xml version="1.0" encoding="utf-8"?>
<!-- Generator: Adobe Illustrator 27.8.1, SVG Export Plug-In . SVG Version: 6.00 Build 0)  -->
<svg version="1.1" id="Layer_1" xmlns="http://www.w3.org/2000/svg" xmlns:xlink="http://www.w3.org/1999/xlink" x="0px" y="0px"
	 viewBox="0 0 512 832.6" style="enable-background:new 0 0 512 832.6;" xml:space="preserve">
<style type="text/css">
	.st0{fill:none;}
	.st1{fill:#20A4DD;}
	.st2{fill:#6FBE44;}
</style>
<rect y="0" class="st0" width="1427.4" height="512"/>
<polygon class="st1" points="256,0 0,256 0,0 "/>
<polygon class="st1" points="0,256 256,512 0,512 "/>
<polygon class="st1" points="256,512 512,256 512,512 "/>
<polygon class="st2" points="512,0 512,256 427,171 257,342 171,256 342,86 256,0 "/>
<g>
	<path class="st2" d="M58.6,664.7c-1.8,7.9-5.3,14-10.4,18.3c-5.3,4.2-11.5,6.3-18.7,6.3c-6.5-0.2-11.9-1.8-16.3-4.9
		c-4.4-3-7.6-6.5-9.6-10.4c-0.6-1.3-1.2-2.5-1.6-3.7c-0.5-1.2-0.8-2.7-1.1-4.6c-0.6-3.4-0.9-10-0.9-19.8c0-9.9,0.3-16.6,0.9-19.9
		c0.6-3.4,1.5-6.1,2.8-8.1c2-3.9,5.2-7.5,9.6-10.5c4.3-3.1,9.8-4.7,16.3-4.8c8,0.1,14.5,2.5,19.5,7.3c5,4.8,8.2,10.8,9.5,18H45.3
		c-1-3.4-2.9-6.4-5.6-8.8c-2.8-2.3-6.2-3.5-10.2-3.6c-3,0.1-5.5,0.7-7.6,1.8c-2.2,1.2-3.9,2.6-5.2,4.4c-1.6,1.8-2.7,4.2-3.2,7.1
		c-0.6,3.1-0.9,8.8-0.9,17.2c0,8.4,0.3,14.1,0.9,17.1c0.5,3,1.6,5.4,3.2,7.2c1.3,1.8,3.1,3.2,5.2,4.3c2.1,1.3,4.7,1.9,7.6,1.9
		c7.1,0,12.3-3.9,15.8-11.7H58.6z"/>
	<path class="st2" d="M66.7,645.8c0-9.9,0.3-16.6,0.9-20c0.6-3.4,1.5-6.1,2.8-8.2c2-3.9,5.2-7.4,9.6-10.5c4.3-3.1,9.8-4.7,16.3-4.8
		c6.6,0.1,12.1,1.7,16.4,4.8c4.3,3.1,7.5,6.6,9.4,10.5c1.4,2.1,2.4,4.8,2.9,8.1c0.5,3.4,0.7,10,0.7,19.9c0,9.8-0.2,16.4-0.7,19.8
		c-0.5,3.4-1.5,6.2-2.9,8.3c-1.9,3.9-5.1,7.4-9.4,10.4c-4.4,3.1-9.9,4.8-16.4,4.9c-6.5-0.2-11.9-1.8-16.3-4.9
		c-4.4-3-7.6-6.5-9.6-10.4c-0.6-1.3-1.2-2.5-1.6-3.7c-0.5-1.2-0.8-2.7-1.1-4.6C67,662.2,66.7,655.6,66.7,645.8z M79.3,645.8
		c0,8.4,0.3,14.1,0.9,17.1c0.5,3,1.6,5.4,3.2,7.2c1.3,1.8,3.1,3.2,5.2,4.3c2.1,1.3,4.7,1.9,7.6,1.9c3,0,5.6-0.6,7.8-1.9
		c2.1-1.1,3.8-2.5,5-4.3c1.6-1.8,2.7-4.2,3.4-7.2c0.6-3,0.9-8.7,0.9-17.1c0-8.4-0.3-14.1-0.9-17.2c-0.6-2.9-1.7-5.3-3.4-7.1
		c-1.3-1.8-2.9-3.2-5-4.4c-2.2-1.1-4.8-1.7-7.8-1.8c-3,0.1-5.5,0.7-7.6,1.8c-2.2,1.2-3.9,2.6-5.2,4.4c-1.6,1.8-2.7,4.2-3.2,7.1
		C79.6,631.7,79.3,637.4,79.3,645.8z"/>
	<path class="st2" d="M142.7,603.1h29c11.2,0.1,19.6,4.9,25.2,14.4c2,3.2,3.3,6.6,3.8,10.1c0.4,3.5,0.6,9.6,0.6,18.2
		c0,9.2-0.3,15.6-1,19.2c-0.3,1.8-0.8,3.5-1.4,4.9c-0.6,1.4-1.4,2.9-2.3,4.4c-2.4,4-5.8,7.3-10.1,10c-4.3,2.8-9.5,4.2-15.7,4.2
		h-28.1V603.1z M155.2,676.4h15c7,0,12.2-2.5,15.3-7.5c1.4-1.8,2.3-4.2,2.7-7c0.3-2.8,0.5-8,0.5-15.6c0-7.4-0.2-12.8-0.5-16
		c-0.5-3.2-1.5-5.8-3.2-7.8c-3.5-5-8.4-7.4-14.8-7.2h-15V676.4z"/>
	<path class="st2" d="M218.3,603.1h52.9v12.2h-40.3v24.4h34.4v11.5h-34.4v25.1h40.3v12.2h-52.9V603.1z"/>
	<path class="st2" d="M313.8,603.1h52.9v12.2h-40.3v25.3h34.4V652h-34.4v36.5h-12.5V603.1z"/>
	<path class="st2" d="M375.4,645.8c0-9.9,0.3-16.6,0.9-20c0.6-3.4,1.5-6.1,2.8-8.2c2-3.9,5.2-7.4,9.6-10.5c4.3-3.1,9.8-4.7,16.3-4.8
		c6.6,0.1,12.1,1.7,16.4,4.8c4.3,3.1,7.5,6.6,9.4,10.5c1.4,2.1,2.4,4.8,2.9,8.1c0.5,3.4,0.7,10,0.7,19.9c0,9.8-0.2,16.4-0.7,19.8
		c-0.5,3.4-1.5,6.2-2.9,8.3c-1.9,3.9-5.1,7.4-9.4,10.4c-4.4,3.1-9.9,4.8-16.4,4.9c-6.5-0.2-11.9-1.8-16.3-4.9
		c-4.4-3-7.6-6.5-9.6-10.4c-0.6-1.3-1.2-2.5-1.6-3.7c-0.5-1.2-0.8-2.7-1.1-4.6C375.7,662.2,375.4,655.6,375.4,645.8z M388,645.8
		c0,8.4,0.3,14.1,0.9,17.1c0.5,3,1.6,5.4,3.2,7.2c1.3,1.8,3.1,3.2,5.2,4.3c2.1,1.3,4.7,1.9,7.6,1.9c3,0,5.6-0.6,7.8-1.9
		c2.1-1.1,3.8-2.5,5-4.3c1.6-1.8,2.7-4.2,3.4-7.2c0.6-3,0.9-8.7,0.9-17.1c0-8.4-0.3-14.1-0.9-17.2c-0.6-2.9-1.7-5.3-3.4-7.1
		c-1.3-1.8-2.9-3.2-5-4.4c-2.2-1.1-4.8-1.7-7.8-1.8c-3,0.1-5.5,0.7-7.6,1.8c-2.2,1.2-3.9,2.6-5.2,4.4c-1.6,1.8-2.7,4.2-3.2,7.1
		C388.3,631.7,388,637.4,388,645.8z"/>
	<path class="st2" d="M451.4,603.1h32.3c6.9,0,12.5,1.9,16.9,5.6c5.2,4.3,8,10.3,8.2,18.2c-0.2,11.6-5.5,19.5-16,23.7l19.2,37.9
		h-14.9L480,652h-16v36.5h-12.5V603.1z M463.9,640.6h19c4.7-0.1,8.2-1.5,10.6-4.2c2.3-2.5,3.5-5.7,3.5-9.4c-0.1-4.5-1.5-7.7-4.2-9.7
		c-2.1-1.8-5.2-2.6-9.2-2.6h-19.7V640.6z"/>
	<path class="st1" d="M2.8,747.1h30c3.3,0,6.4,0.3,9.4,0.9c3,0.8,6.1,2.5,9.2,5c2.6,1.9,4.7,4.6,6.3,8.2c1.7,3.4,2.6,7.5,2.6,12.2
		c0,6.3-2.2,12.1-6.5,17.3c-4.4,5.5-10.9,8.3-19.4,8.4H15.3v33.3H2.8V747.1z M15.3,787h18.6c4.7-0.1,8.2-1.6,10.5-4.5
		c2.2-2.8,3.4-6,3.4-9.4c0-2.9-0.5-5.3-1.4-7.2c-0.9-1.8-2.3-3.2-4-4.2c-2.6-1.7-5.6-2.5-9-2.4H15.3V787z"/>
	<path class="st1" d="M107.4,813.4H76.1l-6.4,19.1H56.4l30.1-85.4H97l30.1,85.4h-13.2L107.4,813.4z M103.9,802l-12-37.4h-0.2
		l-12,37.4H103.9z"/>
	<path class="st1" d="M138.2,747.1h12.5v44h0.2l34.1-44h14.9l-26.5,33.7l29.3,51.7h-14.9l-22.5-41.8l-14.5,15.8v26h-12.5V747.1z"/>
	<path class="st1" d="M213.8,747.1h12.5v85.4h-12.5V747.1z"/>
	<path class="st1" d="M245.7,811.8c6.6,5.6,14.4,8.4,23.5,8.5c10.8-0.2,16.2-4.1,16.4-11.9c0.1-6.4-3.5-10.2-10.8-11.5
		c-3.3-0.5-7-1-11-1.6c-7.1-1.2-12.5-3.9-16.2-8.2c-3.8-4.3-5.7-9.6-5.7-15.8c0-7.5,2.4-13.5,7.2-18.1c4.6-4.5,11.2-6.8,19.8-6.9
		c10.3,0.2,19.2,3.2,26.8,8.8l-7,10.6c-6.2-4.2-13-6.4-20.5-6.6c-3.9,0-7.1,1-9.7,3c-2.7,2.1-4.1,5.2-4.1,9.3c0,2.5,0.9,4.7,2.8,6.7
		c1.9,2,4.8,3.4,8.9,4.2c2.3,0.4,5.4,0.8,9.3,1.3c7.8,1.1,13.5,4,17.2,8.6c3.7,4.6,5.5,9.9,5.5,15.9c-0.4,16.3-10.1,24.6-29,24.9
		c-12.2,0-22.8-3.9-31.6-11.7L245.7,811.8z"/>
	<path class="st1" d="M327.6,758.6h-22.7v-11.5h57.9v11.5h-22.7v73.9h-12.5V758.6z"/>
	<path class="st1" d="M407.1,813.4h-31.4l-6.4,19.1H356l30.1-85.4h10.5l30.1,85.4h-13.2L407.1,813.4z M403.5,802l-12-37.4h-0.2
		l-12,37.4H403.5z"/>
	<path class="st1" d="M437.8,747.1h11.8l37.5,60.7h0.2v-60.7h12.5v85.4H488l-37.4-60.7h-0.2v60.7h-12.5V747.1z"/>
</g>
</svg>
