<?xml version="1.0" encoding="UTF-8"?>
<svg id="Layer_1" data-name="Layer 1" xmlns="http://www.w3.org/2000/svg" xmlns:xlink="http://www.w3.org/1999/xlink" viewBox="0 0 292.5 80.86">
  <defs>
    <style>
      .cls-1 {
        fill: #4156a6;
      }

      .cls-2 {
        fill: #fff;
      }

      .cls-3 {
        fill: #136534;
      }

      .cls-4 {
        fill: url(#linear-gradient);
      }
    </style>
    <linearGradient id="linear-gradient" x1="0" y1="40.43" x2="70.55" y2="40.43" gradientUnits="userSpaceOnUse">
      <stop offset="0" stop-color="#00aeef"/>
      <stop offset="1" stop-color="#223b73"/>
    </linearGradient>
  </defs>
  <g>
    <path class="cls-1" d="M94.67,26.77h6.47v21.32h15.32v5.82h-21.79v-27.14Z"/>
    <path class="cls-1" d="M119.17,26.77h22.1v5.82h-15.63v4.85h14.08v5.82h-14.08v4.85h16.01v5.82h-22.49v-27.14Z"/>
    <path class="cls-1" d="M152.6,26.77h6.9l10.62,27.14h-6.94l-1.51-3.92h-11.24l-1.51,3.92h-6.94l10.62-27.14ZM159.38,44.18l-3.33-8.57-3.33,8.57h6.67Z"/>
    <path class="cls-1" d="M171.67,26.77h12.33c8.72,0,11.63,3.1,11.63,9.03,0,4.85-1.9,7.79-7.21,8.72l7.1,9.38h-7.83l-6.86-9.03h-2.68v9.03h-6.47v-27.14ZM183.81,39.06c4.42,0,5.2-1.12,5.2-3.26s-.78-3.22-5.2-3.22h-5.66v6.48h5.66Z"/>
    <path class="cls-1" d="M198.74,26.77h6.47l11.75,16.36v-16.36h6.44v27.14h-6.44l-11.75-16.4v16.4h-6.47v-27.14Z"/>
    <path class="cls-1" d="M227.28,26.77h6.47v27.14h-6.47v-27.14Z"/>
    <path class="cls-1" d="M237.63,26.77h6.47l11.75,16.36v-16.36h6.44v27.14h-6.44l-11.75-16.4v16.4h-6.47v-27.14Z"/>
    <path class="cls-1" d="M265.39,40.34c0-9.54,4.42-14.15,13.65-14.15,8.45,0,13.26,2.79,13.26,10h-6.13c0-3.3-3.72-4.03-7.21-4.03-5.04,0-6.9,2.44-6.9,8.14s2.56,8.22,6.86,8.22c2.64,0,4.61-1.78,6.16-4.03h-6.63v-5.51h14.04v14.93h-6.13v-4.69c-2.4,3.02-5.47,5.27-9.19,5.27-7.29,0-11.79-4.61-11.79-14.15Z"/>
  </g>
  <g>
    <path class="cls-4" d="M40.43,80.86C18.14,80.86,0,62.73,0,40.43S18.14,0,40.43,0c9.2,0,17.86,3.01,25.06,8.7.81.64.95,1.83.31,2.64-.64.82-1.83.95-2.64.31-6.53-5.16-14.39-7.89-22.73-7.89C20.21,3.76,3.76,20.21,3.76,40.43s16.45,36.67,36.67,36.67c10.15,0,19.94-4.27,26.86-11.7.71-.76,1.9-.8,2.66-.1.76.71.8,1.9.1,2.66-7.63,8.2-18.42,12.9-29.61,12.9Z"/>
    <g>
      <path class="cls-1" d="M38.72,70.36c-2.49,0-4.55-1.56-4.79-3.58-3.39-.43-6.02-2.71-6.38-5.52-.03,0-.06,0-.09,0-5.27,0-9.55-3.53-9.55-7.86,0-.89.18-1.77.55-2.61-3.42-1.47-5.53-4.33-5.53-7.49,0-1.42.44-2.82,1.28-4.07-1.61-.89-3.26-2.48-3.26-4.41s1.7-3.56,3.34-4.45c-.08-.36-.11-.72-.11-1.11,0-4.14,3.17-7.81,7.9-9.18.2-3.65,3.83-6.48,8.33-6.48.44,0,.91.04,1.43.11,1.09-1.67,3.17-2.7,5.47-2.7,3.43,0,6.22,2.3,6.22,5.12v19.07c0,1.53-1.52,2.78-3.38,2.78s-3.38-1.25-3.38-2.78v-8.57c0-.54.53-.98,1.19-.98s1.19.44,1.19.98v8.57c0,.46.45.83,1,.83s1-.37,1-.83v-19.07c0-1.75-1.73-3.17-3.85-3.17s-3.85,1.42-3.85,3.17v4.22c0,.54-.53.98-1.19.98s-1.19-.44-1.19-.98v-4.22c0-.17.01-.35.04-.54-.26-.03-.49-.04-.72-.04-3.31,0-6.01,2.22-6.01,4.95,0,1.78,1.17,3.43,3.06,4.31.37.17.6.5.6.85v7.84c0,.54-.53.98-1.19.98s-1.19-.44-1.19-.98v-7.32c-1.69-.92-2.92-2.39-3.41-4.07-3.43,1.22-5.72,4.06-5.72,7.14,0,.11,0,.21.01.32.11-.02.22-.04.33-.05.43-1.39,2.05-2.42,3.85-2.42.66,0,1.19.44,1.19.98s-.53.98-1.19.98c-.92,0-1.67.62-1.67,1.37,0,.54-.53.98-1.19.98-2.39,0-4.56,1.62-4.56,3.4,0,1.2,1.18,2.24,2.25,2.82,1.96-1.78,4.72-2.8,7.63-2.8.66,0,1.19.44,1.19.98s-.53.98-1.19.98c-4.36,0-7.91,2.92-7.91,6.51s3.55,6.51,7.91,6.51c.66,0,1.19.44,1.19.98s-.53.98-1.19.98c-.84,0-1.7-.09-2.54-.27-.26.62-.39,1.26-.39,1.91,0,3.26,3.22,5.9,7.17,5.9.07,0,.14,0,.21-.01.65-2.49,3.17-4.46,6.23-4.86v-8.89c0-.54.53-.98,1.19-.98s1.19.44,1.19.98v9.79c0,.54-.53.98-1.19.98-2.87,0-5.21,1.92-5.21,4.29,0,2.01,1.67,3.72,4.02,4.17v-2.5c0-.54.53-.98,1.19-.98s1.19.44,1.19.98v4.12c0,1.11,1.09,2.01,2.44,2.01s2.44-.9,2.44-2.01v-20.54c0-.28-.28-.52-.63-.52s-.63.23-.63.52v3.02c0,.54-.53.98-1.19.98s-1.19-.44-1.19-.98v-3.02c0-1.36,1.35-2.47,3-2.47s3,1.11,3,2.47v20.54c0,2.19-2.16,3.97-4.82,3.97Z"/>
      <path class="cls-3" d="M79.5,14.36s-.01,0-.02,0h-5.24v-1.96c.03-.78-.43-1.47-1.11-1.69-3.64-1.04-7.38-1.56-11.14-1.55-6.18,0-14.6,1.52-20.82,8.45v50.5h.02c.12.02.25.02.37,0,21.62-6,37.07,3.23,37.16,3.38.48.3,1.07.3,1.54,0,.48-.3.77-.85.77-1.45V16.05c0-.93-.69-1.69-1.54-1.69ZM78,17.74l-.06,49.58c-8.98-4.02-18.75-5.46-28.37-4.17,4.27-1.53,8.75-2.27,13.25-2.18,3.25.02,6.5.3,9.72.83.84.14,1.63-.49,1.76-1.42.01-.09.02-.18.02-.27V17.74h3.69Z"/>
      <path class="cls-2" d="M47.3,25.19h23.76v6.25h-16.8v5.21h15.13v6.25h-15.13v5.21h17.22v6.25h-24.18v-29.18Z"/>
    </g>
  </g>
</svg>